<svg xmlns="http://www.w3.org/2000/svg" viewBox="0 0 512 512" width="512" height="512" role="img" aria-label="推知 Inferred 图标">
  <defs>
    <radialGradient id="vig" cx="50%" cy="42%" r="72%">
      <stop offset="0%" stop-color="#1b1812"/>
      <stop offset="58%" stop-color="#131009"/>
      <stop offset="100%" stop-color="#0b0b09"/>
    </radialGradient>
  </defs>

  <!-- 暗夜底板 -->
  <rect width="512" height="512" rx="112" fill="url(#vig)"/>

  <!-- 雷达双环 -->
  <circle cx="256" cy="256" r="186" fill="none" stroke="#3A352B" stroke-width="15"/>
  <circle cx="256" cy="256" r="142" fill="none" stroke="#3A352B" stroke-width="4" opacity="0.7"/>

  <!-- 线索网络 -->
  <g stroke="#E8DFC8" stroke-width="12" stroke-linecap="round">
    <line x1="248" y1="250" x2="236" y2="130"/>
    <line x1="248" y1="250" x2="152" y2="172"/>
    <line x1="248" y1="250" x2="154" y2="296"/>
    <line x1="258" y1="258" x2="342" y2="330"/>
  </g>

  <!-- 米白线索节点 -->
  <g fill="#E8DFC8">
    <circle cx="236" cy="130" r="23"/>
    <circle cx="152" cy="172" r="23"/>
    <circle cx="154" cy="296" r="23"/>
  </g>

  <!-- 洞察之眼 -->
  <path d="M180 250 C214 208 282 208 316 250 C282 292 214 292 180 250 Z"
        fill="#0b0b09" stroke="#E8DFC8" stroke-width="12"/>
  <circle cx="248" cy="250" r="22" fill="#E8DFC8"/>
  <circle cx="248" cy="250" r="9" fill="#0b0b09"/>

  <!-- 暗红结论点 -->
  <circle cx="342" cy="330" r="26" fill="#8B2E2E"/>
</svg>
